<svg xmlns="http://www.w3.org/2000/svg" xmlns:svg="http://www.w3.org/2000/svg" id="svg5082" width="16" height="16" version="1.1" viewBox="0 0 16 16"><metadata id="metadata5087"/><g id="layer1" transform="translate(-28,176.00212)"><path id="path31740" d="m 42.193689,-175.91739 -1.675782,1.08984 c 0,0 0.880116,1.53754 0.824219,2.58594 -0.02146,0.4027 -0.451303,1.28669 -0.943359,1.96289 -0.02994,0.0412 -0.05228,0.0619 -0.08203,0.10156 -1.2402,-0.32546 -2.590015,-0.24123 -3.519533,0.15821 -0.98726,4.6511 -4.302447,6.66493 -8.404297,9.51953 5.8542,0.1073 10.819892,0.19266 14.769532,-4.14844 0.677806,-2.23375 0.07441,-3.72496 -1.027344,-4.62695 0.555074,-0.77726 1.142435,-1.7205 1.203125,-2.85938 0.108803,-2.0406 -1.144531,-3.7832 -1.144531,-3.7832 z" style="color:#000;font-style:normal;font-variant:normal;font-weight:400;font-stretch:normal;font-size:medium;line-height:normal;font-family:sans-serif;font-variant-ligatures:normal;font-variant-position:normal;font-variant-caps:normal;font-variant-numeric:normal;font-variant-alternates:normal;font-feature-settings:normal;text-indent:0;text-align:start;text-decoration:none;text-decoration-line:none;text-decoration-style:solid;text-decoration-color:#000;letter-spacing:normal;word-spacing:normal;text-transform:none;writing-mode:lr-tb;direction:ltr;text-orientation:mixed;dominant-baseline:auto;baseline-shift:baseline;text-anchor:start;white-space:normal;shape-padding:0;clip-rule:nonzero;display:inline;overflow:visible;visibility:visible;opacity:1;isolation:auto;mix-blend-mode:normal;color-interpolation:sRGB;color-interpolation-filters:linearRGB;solid-color:#000;solid-opacity:1;vector-effect:none;fill:#a7a7a7;fill-opacity:1;fill-rule:nonzero;stroke:none;stroke-width:2;stroke-linecap:butt;stroke-linejoin:miter;stroke-miterlimit:4;stroke-dasharray:none;stroke-dashoffset:0;stroke-opacity:1;marker:none;paint-order:normal;color-rendering:auto;image-rendering:auto;shape-rendering:auto;text-rendering:auto;enable-background:accumulate"/></g></svg>