<svg xmlns="http://www.w3.org/2000/svg" xmlns:svg="http://www.w3.org/2000/svg" id="svg5082" width="16" height="16.002" version="1.1" viewBox="0 0 16 16.002"><metadata id="metadata5087"/><g id="layer1" transform="translate(-48,176.00212)"><path id="path4626" d="m 51,-166 v 2 a 2,2 0 0 0 2,2 h 2 v -2 a 2,2 0 0 0 -2,-2 z" style="opacity:1;fill:#bebebe;fill-opacity:1;stroke:none;stroke-width:2;stroke-linecap:round;stroke-linejoin:round;stroke-miterlimit:4;stroke-dasharray:none;stroke-opacity:1"/><path id="path4634" d="m 62,-166 v 2 a 2,2 0 0 1 -2,2 h -2 v -2 a 2,2 0 0 1 2,-2 z" style="opacity:1;fill:#bebebe;fill-opacity:1;stroke:none;stroke-width:2;stroke-linecap:round;stroke-linejoin:round;stroke-miterlimit:4;stroke-dasharray:none;stroke-opacity:1"/><path id="path4636" d="m 52,-170 v 1.5 a 1.5,1.5 0 0 0 1.5,1.5 H 55 v -1.5 a 1.5,1.5 0 0 0 -1.5,-1.5 z" style="opacity:1;fill:#bebebe;fill-opacity:1;stroke:none;stroke-width:1.99999988;stroke-linecap:round;stroke-linejoin:round;stroke-miterlimit:4;stroke-dasharray:none;stroke-opacity:1"/><path id="path4638" d="m 61,-170 v 1.5 a 1.5,1.5 0 0 1 -1.5,1.5 H 58 v -1.5 a 1.5,1.5 0 0 1 1.5,-1.5 z" style="opacity:1;fill:#bebebe;fill-opacity:1;stroke:none;stroke-width:1.99999988;stroke-linecap:round;stroke-linejoin:round;stroke-miterlimit:4;stroke-dasharray:none;stroke-opacity:1"/><path id="path4665" d="m 54,-176 v 1 a 1,1 0 0 0 1,1 h 1 v -1 a 1,1 0 0 0 -1,-1 z" style="opacity:1;fill:#bebebe;fill-opacity:1;stroke:none;stroke-width:1.99999988;stroke-linecap:round;stroke-linejoin:round;stroke-miterlimit:4;stroke-dasharray:none;stroke-opacity:1"/><path id="path4667" d="m 59,-176 v 1 a 1,1 0 0 1 -1,1 h -1 v -1 a 1,1 0 0 1 1,-1 z" style="opacity:1;fill:#bebebe;fill-opacity:1;stroke:none;stroke-width:1.99999988;stroke-linecap:round;stroke-linejoin:round;stroke-miterlimit:4;stroke-dasharray:none;stroke-opacity:1"/><path id="path4669" d="m 53,-173 v 1 a 1,1 0 0 0 1,1 h 1 v -1 a 1,1 0 0 0 -1,-1 z" style="opacity:1;fill:#bebebe;fill-opacity:1;stroke:none;stroke-width:1.99999988;stroke-linecap:round;stroke-linejoin:round;stroke-miterlimit:4;stroke-dasharray:none;stroke-opacity:1"/><path id="path4671" d="m 60,-173 v 1 a 1,1 0 0 1 -1,1 h -1 v -1 a 1,1 0 0 1 1,-1 z" style="opacity:1;fill:#bebebe;fill-opacity:1;stroke:none;stroke-width:1.99999988;stroke-linecap:round;stroke-linejoin:round;stroke-miterlimit:4;stroke-dasharray:none;stroke-opacity:1"/><rect id="rect4673" width="1" height="14" x="56" y="-174" rx=".5" ry=".5" style="opacity:1;fill:#bebebe;fill-opacity:1;stroke:none;stroke-width:2;stroke-linecap:round;stroke-linejoin:round;stroke-miterlimit:4;stroke-dasharray:none;stroke-opacity:1"/></g></svg>